<?xml version="1.0" encoding="utf-8" ?>
<svg xmlns="http://www.w3.org/2000/svg" xmlns:xlink="http://www.w3.org/1999/xlink" width="1024" height="1024">
	<path fill="#FEFEFE" d="M0 0L1024 0L1024 1024L0 1024L0 0Z"/>
	<path d="M877.637 702.512C879.322 702.417 880.207 702.46 881.713 703.253C882.616 704.564 882.727 704.784 882.828 706.365C881.071 706.606 879.93 706.6 878.378 705.661C877.619 704.305 877.589 704.071 877.637 702.512Z"/>
	<path d="M885.522 691.679C886.584 692.085 886.658 692.06 887.241 693.022C886.955 695.967 885.584 698.376 884.211 700.951L881.947 699.894L881.557 698.811C881.898 696.173 884.028 693.824 885.522 691.679Z"/>
	<path d="M900.748 703.816C901.816 704.883 902.003 705.922 901.919 707.478C901.784 709.986 899.85 711.717 898.118 713.276C897.814 713.01 897.281 712.567 897.047 712.258C896.239 711.194 896.494 710.271 896.846 709.083C897.53 706.776 898.664 704.928 900.748 703.816Z"/>
	<path d="M913.932 710.42C914.492 710.535 915.003 710.839 915.518 711.082C915.794 711.644 916.208 712.067 916.001 712.711C915.415 714.533 913.081 715.84 911.438 716.546C908.649 717.743 906.923 717.438 904.201 716.291C903.39 715.025 902.61 713.674 902.896 712.133C904.881 711.144 908.131 713.096 910.461 712.879C911.954 712.74 912.977 711.444 913.932 710.42Z"/>
	<path d="M891.534 492.194C892.976 492.931 893.384 494.2 894.015 495.632C898.629 506.093 897.692 522.299 893.532 532.852C892.816 533.843 892.97 533.939 891.728 534.332C890.883 533.089 891.398 530.473 891.548 528.94C892.113 523.185 892.377 517.549 892.093 511.759C891.787 505.5 890.378 498.35 891.534 492.194Z"/>
	<path d="M137.558 578.269L138.991 579.303C140.058 582.546 138.588 587.809 138.549 591.37C138.48 597.566 139.458 603.625 140.314 609.744C140.705 612.535 142.281 618.765 141.285 621.253L140.056 621.5C138.393 619.434 137.052 617.327 136.169 614.806C132.616 604.663 132.97 588.02 137.558 578.269Z"/>
	<path d="M882.261 489.119C884.01 489.743 884.396 490.704 885.11 492.335C889.867 503.196 889.739 522.922 885.498 533.927C884.217 534.48 884.165 534.831 882.786 534.352C883.483 527.104 884.273 519.637 883.823 512.351C883.344 504.59 881.579 496.921 882.261 489.119Z"/>
	<path d="M144.509 578.908C145.487 579.66 145.82 579.827 146.166 581.061C147.539 585.956 147.609 592.021 148.319 597.136C149.425 605.105 151.182 613.249 151.805 621.251C151.927 622.808 151.904 623.377 151.175 624.744C149.609 624.107 148.518 623.443 147.583 621.986C141.726 612.86 142.417 589.171 144.509 578.908Z"/>
	<path d="M219.166 403.446C219.599 403.415 220.61 403.324 221.02 403.376C222.311 403.54 223.276 405.53 223.932 406.555C228.233 413.272 254.516 457.467 254.454 461.312C254.445 461.909 254.201 462.479 254.074 463.062C252.943 463.351 253.512 463.375 252.371 462.94C246.998 455.151 243.195 446.888 238.497 438.761C232.941 429.149 222.1 413.498 219.166 403.446Z"/>
	<path d="M215.025 413.804L216.957 414.053C221.074 416.962 247.406 457.411 249.182 462.873C249.662 464.349 249.061 464.927 248.418 466.215C246.25 465.763 244.616 463.181 243.382 461.472C237.88 453.852 233.096 445.775 227.997 437.89C223.781 431.369 218.243 424.254 215.314 417.091C214.746 415.703 214.793 415.24 215.025 413.804Z"/>
	<path d="M798.503 543.404C799.831 544.01 800.544 544.261 801.146 545.657C803.66 551.492 801.389 562.449 799.223 568.3C795.571 578.159 788.493 588.516 778.722 592.951C777.438 592.955 776.799 592.892 775.677 592.253C774.91 591.063 774.804 590.956 774.845 589.555C776.137 587.409 781.586 585.005 783.951 582.749C790.603 576.405 795.547 566.352 796.306 557.171C796.599 553.634 796.141 550.02 796.458 546.505C796.602 544.912 797.361 544.416 798.503 543.404Z"/>
	<path d="M740.981 395.702C741.808 395.931 742.199 396.125 742.907 396.568C744.382 398.934 744.176 402.396 744.253 405.116C744.526 414.657 744.268 424.204 744.44 433.746L746.074 590.664L746.736 659.252C746.844 668.942 747.974 683.947 746.958 693.128C746.791 694.638 746.693 694.667 745.558 695.569C744.397 695.533 743.5 695.445 742.395 695.078C741.631 694.011 741.764 693.139 741.791 691.905C742.024 681.309 741.682 670.644 741.62 660.041Q741.644 628.021 741.028 596.007L739.883 492.796C739.555 475.765 739.682 458.727 739.318 441.701C739.016 427.533 737.99 413.153 738.956 398.999C739.085 397.102 739.616 396.896 740.981 395.702Z"/>
	<path d="M836.329 271.625C844.434 270.515 854.146 274.664 860.774 278.949C872.468 286.509 879.459 297.843 882.311 311.393C883.752 318.239 883.955 325.33 883.912 332.307C883.642 376.654 860.334 417.453 836.711 453.484C857.357 452.085 877.582 451.185 898.281 451.862C903.908 452.046 909.75 452.227 915.205 453.726C929.309 457.603 943.16 470.588 952.96 481.155C964.781 493.9 977.196 510.962 976.334 529.296C976.021 535.953 973.607 546.251 967.922 550.376C966.598 551.337 963.659 550.34 962.091 550.097C962.141 550.548 970.291 559.247 971.358 560.743C976.94 568.571 979.581 578.413 977.766 587.97C976.298 595.698 971.19 600.876 964.891 605.019C966.182 605.515 967.49 606.014 968.648 606.784C973.673 610.123 975.292 618.109 976.382 623.669C979.236 638.213 976.979 651.35 968.572 663.648C959.838 676.424 945.763 684.5 930.656 687.233C914.643 690.131 899.234 687.01 885.743 677.717C889.622 682.419 896.615 688.284 902.73 689.437C905.702 689.997 910.827 689.498 913.289 691.167C908.681 693.893 899.536 691.02 894.454 689.945C894.723 693.993 894.699 697.96 894.569 702.014C893.147 704.398 891.299 707.845 888.989 709.431L888.579 708.953C888.632 703.024 890.702 694.804 893.075 689.319C885.501 684.019 879.674 678.506 873.448 671.692C870.899 675.453 868.348 679.504 867.249 683.953C865.982 689.082 867.245 693.864 869.971 698.29C877.379 710.317 893.054 722.245 906.88 725.516C915.021 727.442 924.074 726.061 931.166 721.555C938.869 716.661 944.186 706.642 945.642 697.686C946.3 693.646 946.312 689.553 947.242 685.55L947.533 685.753C948.245 695.59 948.738 707.178 943.955 716.17C939.902 723.789 931.501 729.324 923.332 731.605C911.507 734.907 900.376 731.306 890.034 725.385C877.623 718.281 863.802 706.618 860.225 692.114C858.009 683.128 863.897 674.009 868.262 666.607C860.09 658.423 854.32 646.797 853.193 635.236C852.303 626.112 854.563 618.657 860.403 611.596C860.193 611.393 859.98 611.192 859.773 610.987C850.211 601.533 844.139 586.059 844.037 572.668C843.974 564.497 845.599 554.969 851.655 549.036C857.794 543.023 863.979 544.104 871.753 544.306C860.923 541.329 852.141 536.312 845.584 526.978C838.54 516.949 836.337 506.596 838.512 494.597C839.883 487.037 842.891 479.454 849.564 475.059C860.804 467.657 878.207 471.964 890.397 474.478C894.58 475.414 902.309 475.505 905.51 478.378C903.523 481.135 870.918 476.823 864.939 477.073C861.507 477.217 857.95 477.839 854.847 479.354C850.417 481.517 847.758 485.382 846.268 489.987C843.298 499.161 842.945 508.302 847.418 517.059C850.663 523.411 855.585 528.697 861.39 532.795C876.744 543.633 887.181 541.683 904.708 540.269C911.916 539.687 919.421 539.609 926.653 539.775C939.643 540.074 953.21 543.346 965.523 547.436C970.225 540.065 971.86 532.047 970.822 523.363C968.341 502.605 944.143 477.12 928.206 464.58C924.503 461.666 919.934 458.308 915.271 457.197C908.32 455.541 898.776 457.403 891.554 457.651C884.841 457.881 878.113 457.616 871.397 457.781Q851.228 458.438 831.16 460.567C829.441 462.876 827.936 465.21 826.477 467.689C826.729 468.41 826.812 468.81 826.87 469.597C824.29 472.189 821.451 474.554 818.673 476.929C815.178 479.917 807.431 486.793 802.564 486.413C801.373 485.607 801.228 485.363 800.583 484.066C800.626 483.648 800.547 483.199 800.711 482.811C801.723 480.427 816.603 472.988 819.968 469.031C824.022 464.263 826.922 457.833 830.215 452.469C840.715 435.367 850.914 419.156 859.434 400.884C871.925 374.092 884.604 334.125 873.896 305.323Q873.527 304.313 873.108 303.323Q872.689 302.333 872.221 301.365Q871.754 300.397 871.238 299.454Q870.723 298.511 870.161 297.594Q869.599 296.678 868.992 295.79Q868.385 294.903 867.735 294.047Q867.085 293.191 866.392 292.369Q865.7 291.546 864.968 290.759Q864.235 289.973 863.464 289.223Q862.694 288.474 861.887 287.764Q861.079 287.054 860.238 286.385Q859.396 285.716 858.522 285.09Q857.648 284.464 856.744 283.882Q855.84 283.301 854.909 282.765Q853.977 282.229 853.019 281.74Q852.062 281.251 851.081 280.811C844.54 277.859 837.256 276.626 830.417 279.422C824.79 281.723 820.346 285.967 816.815 290.821C806.916 304.436 797.653 329.09 790.638 344.923C785.078 357.475 778.824 369.817 773.467 382.442C773.791 383.605 773.841 383.547 774.862 384.216C780.978 382.405 796.669 338.107 803.871 334.5L804.639 334.887C805.646 340.468 783.326 373.692 781.196 382.983C780.929 384.145 780.794 384.3 781.456 385.336L781.979 385.327C784.18 382.3 785.83 378.515 787.603 375.207C791.033 368.806 794.637 362.556 798.22 356.244C800.264 352.643 802.222 348.516 804.709 345.211C805.528 344.123 806.102 343.651 807.423 343.411C808.262 344.304 808.412 344.602 808.623 345.861C808.777 346.778 808.738 347.342 808.441 348.244C806.824 353.157 802.862 358.754 800.402 363.4C796.609 370.562 789.372 386.95 784.612 392.707C783.673 393.841 783.265 393.728 781.881 393.861C780.75 392.859 780.824 391.733 780.518 390.292L779.741 389.854C775.08 391.508 776.24 396.036 772.823 397.964L771.957 397.302C771.792 395.217 773.693 392.084 774.619 390.21Q772.988 389.721 771.372 389.188C770.267 389.416 769.594 389.71 768.849 390.591C762.973 397.538 760.083 406.591 752.43 413.655C750.877 415.088 748.715 417.133 746.518 417.033L746.289 415.944C747.871 410.095 753.479 405.219 756.728 400.126C759.574 395.663 761.996 390.939 764.352 386.204C775.364 364.075 784.657 341.269 795.095 318.889C799.643 309.136 803.837 298.826 809.856 289.879C816.698 279.709 824.252 273.948 836.329 271.625Z"/>
	<path fill="#FEFEFE" d="M962.95 605.474L963.966 605.508C964.867 607.393 966.309 608.259 967.979 609.392C970.206 613.765 971.418 618.744 972.213 623.563C974.451 637.136 972.819 648.007 964.668 659.299C955.235 672.366 941.735 679.4 925.968 681.793C908.615 684.427 892.856 676.469 879.131 666.42C870.445 658.477 863.185 649.918 860.85 638.019C859.215 629.685 860.695 623.215 865.46 616.227C869.568 618.593 873.457 621.212 877.926 622.883C883.922 625.125 889.896 625.556 896.227 624.928C905.245 624.034 913.58 620.628 922.222 618.157C935.948 614.233 949.894 611.419 962.95 605.474Z"/>
	<path d="M897.382 635.171C899.552 636.879 900.277 641.265 900.609 644.005C901.444 650.912 900.611 658.988 896.27 664.602L894.496 665.526L894.029 665.045C893.985 661.158 895.355 657.302 895.75 653.422C896.367 647.369 896.088 641.128 897.382 635.171Z"/>
	<path d="M887.879 632.613C888.285 632.765 888.478 632.818 888.869 633.061C890.2 633.886 890.755 636.085 891.131 637.509C893.084 644.912 892.047 656.707 888.288 663.336C887.496 663.875 887.499 663.771 886.605 663.793L885.826 662.724C884.941 658.317 887.027 637.908 887.879 632.613Z"/>
	<path fill="#FEFEFE" d="M902.809 545.683C906.678 545.067 911.069 545.348 914.989 545.372C930.667 545.465 942.133 547.202 957.419 548.887C962.272 556.726 968.293 561.351 971.751 570.466C974.139 576.76 974.786 584.808 971.808 591.014C969.964 594.857 966.97 597.828 963.313 599.969C952.424 606.346 929.482 609.456 916.385 614.052Q910.798 615.945 905.144 617.627C895.79 620.37 886.668 621.307 877.782 616.355C865.609 609.571 855.971 597.222 852.359 583.789C850.135 575.514 849.39 564.463 854.034 556.851C855.52 554.416 857.502 551.911 860.415 551.304C860.672 551.251 860.932 551.21 861.19 551.158C866.911 550.008 872.746 550.473 878.512 549.722C886.646 548.663 894.656 546.73 902.809 545.683Z"/>
	<path d="M889.606 564.835C890.832 565.6 891.252 566.371 891.833 567.72C895.777 576.886 895.245 590.914 891.408 600.039C890.817 600.667 890.403 600.99 889.694 601.447L888.992 601.176C888.207 595.126 889.453 588.354 889.552 582.232C889.642 576.612 888.607 570.33 889.606 564.835Z"/>
	<path d="M880.953 557.91C882.152 559.119 882.837 560.274 883.391 561.869C886.811 571.713 887.794 588.269 885.211 598.422C884.687 600.479 883.598 602.52 882.685 604.434C881.994 605.459 882.003 605.695 880.839 606.25L880.087 605.404C879.739 603.974 879.581 602.728 879.587 601.254C879.613 595.305 880.641 589.345 880.812 583.389C881.044 575.361 879.13 565.681 880.953 557.91Z"/>
	<path d="M173.839 338.702C185.857 337.736 196.94 343.514 205.114 352.072C212.612 359.923 217.94 370.334 223.287 379.727C240.984 410.811 264.874 465.531 293.613 485.618C295.658 477.791 298.426 470.126 300.691 462.355C304.101 450.654 307.172 438.834 310.485 427.1Q313.852 415.299 317.08 403.46C318.422 398.344 319.457 393.145 321.121 388.12C322.088 387.264 322.002 387.285 323.291 387.34C324.413 388.176 324.955 388.55 325.207 389.985C325.599 392.215 321.855 405.702 321 408.905C317.851 420.7 314.232 432.368 310.927 444.121L286.963 529.917Q270.544 591.345 252.844 652.415C250.47 660.791 240.485 699.865 237.221 704.296C236.292 705.557 235.47 706.117 233.935 706.329L233.246 705.285C233.08 703.545 233.146 702.029 233.58 700.325C234.879 695.227 236.793 690.23 238.277 685.175C243.403 667.712 248.793 650.274 253.551 632.709L274.005 557.539C279.904 535.476 285.477 513.258 292.421 491.492C283.61 486.095 275.671 478.791 269.271 470.689C266.4 467.053 264.005 463.03 260.692 459.765C259.718 459.731 260.033 459.676 259.294 459.828C258.79 459.931 258.718 459.973 258.196 460.04C256.942 460.2 256.023 459.721 255.083 458.931C252.368 456.649 247.567 445.873 247.52 442.427L248.159 441.791L249.86 442.235C247.869 437.451 245 432.781 242.527 428.216L227.198 400.591C219.355 386.167 211.742 369.319 200.543 357.267C196.003 352.381 190.439 348.343 183.971 346.482C175.943 344.172 168.036 346.262 160.977 350.283C150.619 356.184 144.368 366.501 141.367 377.811C131.737 414.109 151.558 456.705 169.545 487.463C175.878 498.293 183.128 508.31 190.015 518.755C197.05 529.425 203.164 541.363 212.461 550.265C217.635 555.218 220.974 557.202 227.886 559.058C230.525 559.767 233.216 560.19 234.672 562.697C234.495 563.465 234.582 563.964 233.9 564.453C232.568 565.407 230.667 565.286 229.109 565.111C213.252 563.337 204.217 549.951 195.076 538.502C188.936 537.873 182.426 538.298 176.266 538.683C161.574 539.602 109.296 544.465 97.7052 549.736C93.6204 551.593 90.7868 554.929 87.8895 558.221Q82.4582 564.609 77.4039 571.3C65.9278 586.594 48.0147 612.678 51.244 632.428C52.2123 638.35 55.522 644.444 60.508 647.92C62.9336 649.611 64.9479 650.445 67.9333 650.154C75.5384 649.411 82.8101 647.008 90.1615 645.041Q99.3791 642.598 108.768 640.93Q122.436 638.463 136.26 637.116C141.884 636.52 147.569 636.26 153.124 635.144C162.251 633.31 173.021 629.015 178.211 620.789C185.936 608.546 188.711 587.431 185.657 573.399C184.428 567.752 181.867 561.974 176.764 558.842C174.869 557.679 172.084 556.6 169.83 556.68C164.597 556.864 158.481 559.982 153.487 561.596Q145.98 564.026 138.296 565.816C134.095 566.792 119.683 569.334 115.96 567.008C117.628 565.632 142.491 559.137 147.236 557.547C152.601 555.75 164.441 549.409 169.375 549.698C175.839 550.076 181.721 553.457 185.878 558.332C194.067 567.934 193.77 582.176 192.719 594.067C191.817 604.285 189.187 618.769 182.642 627.028C180.287 630 176.694 632.385 173.782 634.83L173.988 635.145C174.318 635.105 174.648 635.062 174.979 635.027C180.507 634.437 187.497 636.465 191.695 640.072C197.211 644.812 198.32 652.662 198.644 659.55C199.489 677.529 193.726 699.24 181.537 712.761C183.788 713.632 185.923 714.56 187.806 716.105C192.431 719.898 194.352 725.38 194.995 731.147C196.535 744.956 190.464 760.976 181.959 771.666C184.197 772.109 186.478 772.649 188.556 773.611C194.496 776.363 197.881 781.163 199.915 787.234C202.661 795.432 200.659 803.519 196.94 811C189.808 825.347 170.686 843.619 155.293 848.631C144.767 852.058 133.178 850.6 123.435 845.499C115.555 841.373 110.881 834.48 108.396 826.141C106.951 821.291 104.334 806.42 107.178 802.138C107.285 801.977 107.432 801.847 107.552 801.695C107.715 801.489 107.867 801.274 108.026 801.065L108.413 800.566C106.737 798.261 100.378 796.704 97.7382 795.414C86.8098 790.074 74.2153 781.086 68.9649 769.836C60.79 752.32 64.0373 732.983 70.3059 715.569C65.8586 712.912 62.4294 709.92 59.5418 705.616C51.2774 693.298 52.8588 680.946 60.1682 668.739C62.5186 664.813 65.7021 660.616 66.6123 656.087C66.5088 655.841 66.5016 655.526 66.302 655.349C65.3868 654.538 59.1551 653.837 54.0723 648.878C47.9395 642.895 45.3992 635.203 45.4867 626.76C45.7372 602.568 68.7758 571.658 85.5877 555.143C89.2089 551.586 93.0839 548.275 97.7138 546.11C112.824 539.044 154.191 533.627 171.533 532.632C178.081 532.256 184.77 532.518 191.331 532.588C186.814 523.076 179.58 515.563 173.798 506.856C155.653 479.533 138.94 448.79 134.224 415.902C131.322 395.666 132.271 372.378 145.052 355.48Q145.699 354.629 146.386 353.811Q147.074 352.992 147.801 352.209Q148.528 351.425 149.292 350.678Q150.057 349.932 150.857 349.223Q151.658 348.515 152.492 347.847Q153.326 347.179 154.192 346.552Q155.058 345.926 155.954 345.343Q156.85 344.76 157.773 344.222Q158.697 343.684 159.646 343.192Q160.594 342.7 161.566 342.255Q162.538 341.81 163.531 341.413Q164.523 341.017 165.534 340.669Q166.545 340.322 167.571 340.025Q168.598 339.728 169.638 339.481Q170.678 339.235 171.729 339.04Q172.78 338.845 173.839 338.702Z"/>
	<path fill="#FEFEFE" d="M180.656 778.856C185.863 780.43 190.168 782.03 192.798 787.225C195.284 792.137 194.978 797.804 193.178 802.885C187.925 817.71 169.737 834.938 155.674 841.493C147.468 845.319 138.249 845.478 129.777 842.34C122.969 839.818 117.719 835.014 114.728 828.374Q113.981 826.738 113.354 825.053Q112.727 823.368 112.222 821.642Q111.717 819.917 111.338 818.159Q110.958 816.402 110.705 814.622Q110.452 812.841 110.328 811.048Q110.204 809.254 110.208 807.456Q110.213 805.658 110.347 803.865Q110.48 802.072 110.742 800.293C130.3 803.102 148.117 800.469 165.329 790.677C164.403 791.899 163.002 792.739 161.789 793.664C157.043 797.282 153.567 800.836 152.092 806.805C151.791 808.02 151.619 808.686 152.303 809.784C154.005 809.613 155.883 806.253 156.924 804.799C160.81 799.372 166.974 797.157 171.139 792.103C174.612 787.889 176.97 783.057 180.656 778.856Z"/>
	<path d="M144.302 822.889C144.413 823.007 144.556 823.103 144.636 823.245C147.012 827.437 151.001 832.412 152.784 836.547C153.401 837.979 153.279 838.525 152.704 839.925C151.46 839.72 150.427 839.47 149.346 838.783C146.018 836.67 143.623 830.301 143.058 826.678C142.765 824.796 143.275 824.355 144.302 822.889Z"/>
	<path d="M171.33 804.019C172.224 804.035 173.133 804.048 174.019 804.172C176.696 804.548 178.787 807.05 180.156 809.19C181.145 810.736 182.156 812.819 181.566 814.669C181.296 815.512 180.945 815.478 180.226 815.867C178.166 815.811 176.545 814.625 174.801 813.628C171.063 814.903 167.388 817.049 165.062 820.333C162.864 823.439 162.468 825.735 163.189 829.401C163.462 829.91 163.488 830.535 163.584 831.102L162.899 831.777C162.246 831.755 161.761 831.692 161.196 831.332C159.936 830.53 158.873 829.289 158.651 827.764C158.3 825.35 159.655 822.255 160.907 820.262C164.145 815.108 169.349 811.892 175.204 810.677C173.344 809.657 170.904 808.692 169.77 806.848C169.836 805.225 170.233 805.15 171.33 804.019Z"/>
	<path fill="#FEFEFE" d="M73.0844 716.786C77.2272 717.946 81.3667 719.078 85.5728 719.989C103.08 723.777 140.684 726.59 158.006 723.802C164.336 722.783 170.741 720.768 176.158 717.285C177.783 718.285 179.438 719.286 180.93 720.479C184.877 723.639 187.222 728.23 187.733 733.233C189.32 748.781 179.949 763.403 170.395 774.683C166.033 779.089 161.689 783.618 156.467 787.021C144.274 794.968 125.911 797.425 111.816 794.411C100.093 791.903 81.992 780.617 75.4864 770.278C65.9075 755.054 69.3272 733.279 73.0844 716.786Z"/>
	<path d="M156.95 737.636L157.796 738.258C160.268 744.88 164.987 762.993 165.563 769.636C164.102 769.386 162.849 768.748 161.81 767.679C156.851 762.575 156.75 744.608 156.95 737.636Z"/>
	<path d="M148.388 736.261C149.13 736.612 149.446 736.904 150.024 737.465C150.786 739.862 157.217 768.628 157.175 768.847C157.049 769.5 156.674 770.079 156.424 770.696C155.978 770.62 155.687 770.599 155.258 770.381C152.162 768.807 150.21 763.338 149.313 760.156C147.849 754.969 145.819 740.909 148.388 736.261Z"/>
	<path fill="#FEFEFE" d="M172.131 641.02C177.459 641.869 184.808 642.297 188.171 647.173C193.073 654.281 191.614 666.054 190.234 674.076C187.865 687.844 183.366 702.934 171.328 711.299Q169.625 712.469 167.812 713.458Q165.998 714.448 164.093 715.247Q162.188 716.045 160.211 716.645Q158.234 717.245 156.206 717.639C149.679 718.94 142.908 718.724 136.283 718.697C118.557 718.625 101.562 717.478 84.0873 714.348C75.7382 712.537 68.5508 710.175 63.6441 702.538C51.7035 683.952 66.2487 672.898 70.1285 655.729C94.2564 648.61 122.019 645.236 147.001 642.418C154.781 641.541 165.105 644.603 172.131 641.02Z"/>
	<path d="M148.505 665.118C149.59 665.44 149.772 665.467 150.508 666.309C151.688 672.99 152.581 679.845 154.219 686.428C155.336 690.918 157.323 695.362 158.211 699.87C158.416 700.911 158.211 701.812 157.987 702.83C157.703 702.777 157.414 702.744 157.134 702.673C155.39 702.231 153.685 700.141 152.775 698.674C148.47 691.731 146.708 672.914 148.505 665.118Z"/>
	<path d="M157.79 661.156C159.022 661.93 159.145 662.061 159.623 663.496C161.089 667.898 168.715 697.494 168.184 700.055C168.045 700.722 167.602 701.286 167.311 701.902C165.197 701.079 164.02 699.987 162.951 697.99C158.939 690.494 155.189 669.251 157.79 661.156Z"/>
	<path d="M632.284 317.669C641.092 317.136 704.531 316.827 707.917 318.082C709.9 318.817 712.162 320.279 713.007 322.301C715.707 328.762 714.193 359.051 714.418 368.838L717.489 510.249C717.757 521.363 718.415 532.474 718.723 543.591L722.295 699.757C722.343 702.963 723.047 708.666 721.656 711.43C720.774 713.185 719.217 713.818 717.45 714.322C695.107 714.457 672.789 714.444 650.449 715.006C646.959 715.093 636.519 716.03 634.231 713.853C631.247 704.769 632.588 667.049 632.428 655.242L631.047 584.5L627.51 391.5C627.228 371.913 626.488 352.297 626.438 332.712C626.429 329.478 626.075 324.975 627.309 321.96C628.26 319.639 630.109 318.655 632.284 317.669Z"/>
	<path d="M375.091 316.105C381.726 315.735 388.473 315.994 395.125 315.995L433.056 316.069C446.98 316.094 462.716 315.05 476.404 316.184C479.425 316.434 481.745 317.076 484.445 318.471C485.963 320.549 487.043 322.603 487.848 325.047C493.318 341.661 497.958 358.65 502.825 375.453L518.264 428.058L566.251 596.621L587 672.606C589.578 682.211 595.652 699.383 595.905 708.64C595.956 710.502 595.77 712.219 594.277 713.516C593.155 714.49 592.142 714.797 590.683 714.936C577.898 716.151 562.261 715.136 549.186 715.134C534.555 715.133 519.904 716.065 505.292 715.396C502.279 708.965 500.433 701.766 498.461 694.953C494.752 682.132 491.437 669.336 488.56 656.302C486.906 648.809 485.803 640.962 483.154 633.746C482.119 630.926 481 629.234 478.69 627.326C476.176 626.6 473.663 626.508 471.065 626.445C456.645 626.094 442.129 627.017 427.684 626.914C415.504 626.826 399.202 625.214 387.569 626.711C383.715 627.207 381.249 628.201 378.911 631.403C374.028 638.091 363.777 685.656 361.088 697.133C359.746 702.861 358.78 712.106 355.221 716.667C352.93 718.045 350.272 718.302 347.647 718.478C330.915 719.599 313.826 718.343 297.056 718.41C287.418 718.449 276.556 720.116 267.099 718.511C265.247 718.197 263.716 717.76 262.57 716.173C261.948 712.621 262.863 708.84 263.726 705.385C267.164 691.633 271.451 678.052 275.11 664.351L322.136 491.373Q339.588 423.011 358.714 355.099C360.95 347.121 365.344 326.249 368.83 320.339C370.284 317.875 372.439 316.861 375.091 316.105Z"/>
	<path fill="#FEFEFE" d="M425.949 430.113C428.426 429.843 431.059 429.691 433.459 430.509C435.189 431.099 436.372 432.166 437.087 433.849C438.99 438.332 439.759 443.635 440.829 448.376Q443.592 460.822 446.533 473.228C451.118 492.442 457.566 513.408 460.96 532.66C461.359 534.924 461.924 537.711 460.997 539.867C456.711 543.481 440.781 542.054 434.75 542C428.997 542.023 402.906 543.47 399.493 540.466C398.905 537.418 399.083 534.373 399.526 531.318C401.292 519.135 404.869 506.966 407.53 494.921C412.031 474.548 416.065 453.926 421.414 433.76C422.79 432.21 424.193 431.203 425.949 430.113Z"/>
</svg>
